<svg width="125" height="48" viewBox="0 0 125 48" fill="none" xmlns="http://www.w3.org/2000/svg">
<circle cx="24" cy="24" r="24" fill="#FFD88D"/>
<path d="M30.84 38.4C28.4933 38.4 26.4 37.88 24.56 36.84C22.7467 35.8 21.3333 34.2667 20.32 32.24C19.3067 30.2133 18.8 27.7467 18.8 24.84C18.8 21.9867 19.3333 19.5467 20.4 17.52C21.4667 15.4933 22.9867 13.9333 24.96 12.84C26.96 11.7467 29.3067 11.2 32 11.2C34.9867 11.2 37.4 11.7467 39.24 12.84C41.08 13.9067 42.5067 15.6133 43.52 17.96L37.16 20.48C36.8133 19.12 36.2 18.1333 35.32 17.52C34.44 16.9067 33.3467 16.6 32.04 16.6C30.7333 16.6 29.6133 16.92 28.68 17.56C27.7467 18.1733 27.04 19.0933 26.56 20.32C26.08 21.52 25.84 23.0133 25.84 24.8C25.84 26.6667 26.08 28.2267 26.56 29.48C27.0667 30.7333 27.8 31.6667 28.76 32.28C29.7467 32.8667 30.96 33.16 32.4 33.16C33.1733 33.16 33.88 33.0667 34.52 32.88C35.16 32.6933 35.72 32.4267 36.2 32.08C36.68 31.7067 37.0533 31.2533 37.32 30.72C37.5867 30.16 37.72 29.5067 37.72 28.76V28.36H31.68V23.76H43.56V38H38.88L38.36 31.8L39.48 32.76C38.92 34.5733 37.9067 35.9733 36.44 36.96C35 37.92 33.1333 38.4 30.84 38.4ZM67.5491 18L60.2691 38C59.5224 40.1067 58.7091 41.7867 57.8291 43.04C56.9491 44.2933 55.9091 45.2 54.7091 45.76C53.5091 46.32 52.0691 46.6 50.3891 46.6C49.2691 46.6 48.2424 46.48 47.3091 46.24C46.3757 46 45.5624 45.6667 44.8691 45.24L46.2291 40.64C46.7091 40.9867 47.2157 41.2267 47.7491 41.36C48.2824 41.52 48.9624 41.6 49.7891 41.6C50.5624 41.6 51.1891 41.4667 51.6691 41.2C52.1757 40.9333 52.5757 40.4267 52.8691 39.68L53.3891 38.44L51.0691 33L45.0691 18H52.5491L55.6291 29.4L56.5891 33.64L57.7091 29.24L60.7891 18H67.5491ZM79.8984 25.32C79.8984 24.3867 79.6318 23.6533 79.0984 23.12C78.5918 22.56 77.8984 22.28 77.0184 22.28C76.1384 22.28 75.3784 22.5067 74.7384 22.96C74.1251 23.3867 73.6984 24.16 73.4584 25.28L67.6984 23.92C68.0718 22 69.0584 20.4667 70.6584 19.32C72.2584 18.1733 74.5118 17.6 77.4184 17.6C79.3651 17.6 81.0184 17.8933 82.3784 18.48C83.7651 19.04 84.8184 19.8933 85.5384 21.04C86.2851 22.16 86.6584 23.5467 86.6584 25.2V32.52C86.6584 33.56 87.1251 34.08 88.0584 34.08C88.5384 34.08 88.9251 34.0267 89.2184 33.92L88.8184 37.8C88.0184 38.1733 87.0451 38.36 85.8984 38.36C84.8584 38.36 83.9384 38.2 83.1384 37.88C82.3384 37.5333 81.7118 37.0267 81.2584 36.36C80.8051 35.6667 80.5784 34.8 80.5784 33.76V33.52L81.3384 33.24C81.3384 34.3867 80.9918 35.3467 80.2984 36.12C79.6318 36.8933 78.7518 37.4667 77.6584 37.84C76.5918 38.2133 75.4718 38.4 74.2984 38.4C72.9384 38.4 71.7518 38.1867 70.7384 37.76C69.7251 37.3333 68.9384 36.72 68.3784 35.92C67.8451 35.0933 67.5784 34.08 67.5784 32.88C67.5784 31.44 68.0051 30.2533 68.8584 29.32C69.7384 28.36 71.1118 27.6933 72.9784 27.32L80.5384 25.76L80.4984 29.36L76.6584 30.16C75.8584 30.32 75.2584 30.56 74.8584 30.88C74.4851 31.1733 74.2984 31.6267 74.2984 32.24C74.2984 32.8267 74.5118 33.2667 74.9384 33.56C75.3651 33.8533 75.8718 34 76.4584 34C76.9118 34 77.3384 33.9333 77.7384 33.8C78.1651 33.6667 78.5384 33.4667 78.8584 33.2C79.1784 32.9067 79.4318 32.5467 79.6184 32.12C79.8051 31.6933 79.8984 31.1867 79.8984 30.6V25.32ZM91.1025 38V18H97.1825L97.5425 24.88L96.7825 24.12C97.0492 22.68 97.5158 21.48 98.1825 20.52C98.8758 19.56 99.7292 18.84 100.742 18.36C101.782 17.8533 102.942 17.6 104.222 17.6C105.609 17.6 106.809 17.8667 107.822 18.4C108.862 18.9333 109.676 19.72 110.262 20.76C110.849 21.8 111.142 23.1067 111.142 24.68V38H104.342V26.48C104.342 25.0933 104.076 24.1333 103.542 23.6C103.009 23.0667 102.329 22.8 101.502 22.8C100.862 22.8 100.262 22.96 99.7025 23.28C99.1425 23.5733 98.7025 24.0533 98.3825 24.72C98.0625 25.3867 97.9025 26.28 97.9025 27.4V38H91.1025ZM118.507 15.68C117.121 15.68 116.107 15.4267 115.467 14.92C114.854 14.3867 114.547 13.56 114.547 12.44C114.547 11.2933 114.854 10.4667 115.467 9.96C116.107 9.42667 117.121 9.16 118.507 9.16C119.867 9.16 120.867 9.42667 121.507 9.96C122.147 10.4667 122.467 11.2933 122.467 12.44C122.467 13.56 122.147 14.3867 121.507 14.92C120.867 15.4267 119.867 15.68 118.507 15.68ZM121.907 18V38H115.107V18H121.907Z" fill="#0E0E2C"/>
</svg>
